<?xml version="1.0" encoding="utf-8"?>
<svg version="1.1" xmlns:xlink="http://www.w3.org/1999/xlink" width="30px" height="30px" xmlns="http://www.w3.org/2000/svg">
  <g transform="matrix(1 0 0 1 -456 -298 )">
    <path d="M 471 298  C 479.4 298  486 304.6  486 313  C 486 321.4  479.4 328  471 328  C 462.6 328  456 321.4  456 313  C 456 304.6  462.6 298  471 298  Z " fill-rule="nonzero" fill="#ffffff" stroke="none" />
    <path d="M 471 298.5  C 479.12 298.5  485.5 304.88  485.5 313  C 485.5 321.12  479.12 327.5  471 327.5  C 462.88 327.5  456.5 321.12  456.5 313  C 456.5 304.88  462.88 298.5  471 298.5  Z " stroke-width="1" stroke="#797979" fill="none" />
  </g>
</svg>